<svg version="1.1" id="Layer_1" xmlns="http://www.w3.org/2000/svg" xmlns:xlink="http://www.w3.org/1999/xlink" x="0px" y="0px"
	 width="100%" viewBox="0 0 688 1024" enable-background="new 0 0 688 1024" xml:space="preserve">
<path fill="#000000" opacity="1.000000" stroke="none" 
	d="
M225.061157,533.141968 
	C210.466125,523.601807 196.964752,513.009399 180.861679,505.039856 
	C179.987946,512.487061 179.979477,518.978149 181.766144,525.456543 
	C183.535553,531.872314 185.320557,538.291077 186.806259,544.775452 
	C187.950119,549.767883 188.048828,554.710754 183.958237,558.762939 
	C177.864014,564.799927 168.144562,563.446960 164.013107,555.905823 
	C160.486954,549.469604 159.071350,542.243225 158.923004,535.221191 
	C158.601257,519.989746 154.293457,505.702393 150.312286,491.293304 
	C146.767120,478.462372 142.970764,465.700806 139.285965,452.908417 
	C137.843109,447.899384 139.320236,443.576019 142.953857,440.183014 
	C146.791870,436.599213 151.467148,435.683777 156.405151,437.793427 
	C161.055038,439.779968 163.897598,443.346008 164.254730,448.462067 
	C164.462219,451.434296 164.435989,454.400574 165.831543,457.899109 
	C167.249313,454.203125 168.468445,451.017883 169.692947,447.834717 
	C170.964417,444.529510 172.760925,441.542725 175.266815,439.031586 
	C179.536865,434.752502 184.363953,432.423462 190.577866,434.526245 
	C197.180374,436.760559 200.604874,441.461945 201.262894,448.196136 
	C201.566208,451.300323 201.314575,454.458771 201.314575,457.869202 
	C205.484741,458.092773 209.229721,457.815765 212.885620,459.357697 
	C215.390915,460.414307 217.532013,458.016022 219.522659,456.608643 
	C232.874619,447.169037 245.220520,436.511597 257.116669,425.317200 
	C265.489899,417.437775 276.644135,419.955048 279.710663,430.416565 
	C279.942627,431.207855 280.419739,432.170258 280.172607,432.821564 
	C277.558960,439.709991 282.819366,441.566010 287.313568,444.182831 
	C290.733856,440.988434 292.437103,436.719360 294.034882,432.643463 
	C298.592041,421.018280 308.444244,415.216492 321.079865,426.959564 
	C323.794159,420.829498 324.031525,414.301544 324.470459,407.936584 
	C324.985229,400.472809 324.643494,392.950867 324.700592,385.454315 
	C324.727600,381.910156 322.110291,380.729980 319.511108,379.490967 
	C305.446808,372.786926 292.365356,364.563599 280.825989,354.044159 
	C260.188080,335.230499 248.158279,311.945160 244.571289,284.222687 
	C243.646973,277.079102 243.295883,270.061127 244.595352,262.914246 
	C247.612396,246.321106 261.454437,238.628464 277.011169,245.262573 
	C287.541901,249.753387 295.707886,257.290344 302.752167,266.129303 
	C322.949402,291.472198 334.326141,320.675262 340.319763,352.217804 
	C341.094208,356.293640 341.683868,360.404510 342.450897,364.481903 
	C343.084686,367.851196 347.400360,370.598053 350.431244,368.979187 
	C357.557892,365.172668 364.644531,364.666534 371.796112,368.228607 
	C373.636047,365.905334 373.518372,363.461639 374.134277,361.270325 
	C375.754211,355.506897 379.485321,352.135101 385.364258,351.353271 
	C390.760773,350.635590 395.128052,352.586884 398.336426,357.050781 
	C401.817352,361.893951 404.572723,367.281525 409.586121,372.098175 
	C410.391052,368.267517 410.846985,364.913116 411.814789,361.713562 
	C414.740509,352.040833 426.821198,348.464386 433.920502,355.040192 
	C436.189636,357.142059 436.962006,360.163483 439.265808,363.513580 
	C441.175568,355.169098 442.933838,347.562347 444.656158,339.947479 
	C451.193115,311.045807 458.861542,282.446991 467.750183,254.181076 
	C469.877106,247.417480 473.989929,244.083450 479.700043,243.886871 
	C485.535309,243.686005 490.207184,246.547134 492.486603,251.723053 
	C493.979614,255.113327 493.753082,258.574890 492.668152,261.974915 
	C488.564117,274.836975 488.902496,287.827911 491.344727,300.904938 
	C491.587646,302.205505 491.789948,303.485718 492.802307,304.578186 
	C496.316467,302.069855 499.689240,299.386658 503.326080,297.128876 
	C509.298035,293.421478 515.792053,292.440369 522.466614,294.917450 
	C525.101562,295.895325 526.829224,295.353577 528.632874,293.417419 
	C533.853699,287.813049 539.083679,282.210968 544.492004,276.789612 
	C548.682312,272.589233 553.461975,270.073883 559.777771,272.087036 
	C566.203430,274.135284 569.350281,278.566284 569.687866,284.993225 
	C570.333618,297.286041 570.120667,309.595917 567.249573,321.616364 
	C565.649475,328.315277 558.782837,332.424103 551.910034,331.507477 
	C549.082764,331.130402 546.667542,331.820831 544.250610,333.070007 
	C532.917114,338.927338 522.953491,346.695648 513.435669,355.090851 
	C511.314545,356.961792 509.225830,358.871857 507.056946,360.685852 
	C501.545776,365.295197 494.086609,364.441620 490.108154,358.412964 
	C488.497009,355.971588 486.794159,355.113617 484.003113,355.248322 
	C481.227631,355.382294 480.111450,356.166443 480.655579,359.190277 
	C482.359894,368.662170 483.750092,378.182526 482.934875,388.869080 
	C490.300262,384.064636 496.989532,379.804016 503.575073,375.388611 
	C542.594177,349.227417 581.255798,322.555481 618.602234,294.032990 
	C629.585083,285.645111 640.335815,276.952698 651.168091,268.368500 
	C656.072754,264.481750 661.341919,264.751648 664.806091,269.159729 
	C668.074707,273.318970 667.198792,278.591949 662.286926,282.127411 
	C628.494751,306.449951 595.315063,331.617218 561.128296,355.395569 
	C534.327637,374.036530 507.589905,392.767975 480.784485,411.402130 
	C478.211609,413.190704 476.531525,415.387238 475.384094,418.307281 
	C472.117676,426.619781 467.578125,434.161987 460.700317,440.035614 
	C454.170288,445.612244 446.963959,448.379700 438.759003,443.800812 
	C436.354034,442.458679 434.959015,443.649841 433.431213,444.799164 
	C428.507080,448.503540 423.578278,452.211456 418.814758,456.117371 
	C409.527771,463.732361 402.536774,462.784058 395.671967,452.233917 
	C394.427032,455.962097 393.349091,459.295593 392.202942,462.605438 
	C384.205017,485.702209 372.675568,506.717102 355.661041,524.490906 
	C352.074463,528.237549 348.035767,531.450500 343.737122,534.321838 
	C336.279907,539.302917 328.070160,541.728821 319.657990,537.841797 
	C310.537994,533.627686 308.907898,524.619446 308.829773,515.799316 
	C308.716400,503.001251 309.999115,490.231140 312.233337,477.615997 
	C312.926575,473.701782 312.530151,471.380676 308.209381,470.288605 
	C306.076843,469.749542 304.266815,467.934387 302.205566,466.630066 
	C300.423462,466.684662 299.543488,468.290192 298.319885,469.342133 
	C295.877747,471.441589 293.018738,473.894104 290.076599,473.705658 
	C282.446136,473.216858 279.520203,478.517548 275.958801,483.446106 
	C273.706848,486.562439 270.994202,489.292908 267.682343,491.322998 
	C260.118958,495.959076 251.538132,493.754333 247.097000,486.046936 
	C244.975006,482.364349 244.207993,478.267487 243.746109,474.126495 
	C243.524780,472.142242 243.469040,470.172760 241.987152,468.006927 
	C236.926727,471.803101 231.929169,475.583466 226.893112,479.311798 
	C225.293472,480.496033 225.679779,481.851135 226.317139,483.295807 
	C231.122742,494.188293 234.051254,505.954102 242.939407,514.850220 
	C247.770859,519.685974 247.287003,526.157776 243.074158,531.197083 
	C238.883881,536.209351 232.756088,536.949524 225.061157,533.141968 
M355.110229,398.765228 
	C350.876678,405.976746 346.952332,413.471375 345.497192,421.679352 
	C343.606628,432.343475 342.359711,443.055511 337.029968,452.780487 
	C335.952576,454.746338 335.779022,457.233521 335.317017,459.506409 
	C332.731232,472.227509 331.418701,485.128204 330.508789,498.044067 
	C330.127380,503.457764 329.146698,509.212799 332.206573,514.822632 
	C337.850891,512.070068 342.123260,508.409912 345.913544,504.199738 
	C359.184052,489.458923 368.175446,472.290405 373.938019,453.433624 
	C376.665985,444.506958 378.334534,435.306824 377.478851,425.884583 
	C377.208771,422.911041 376.605591,420.394470 372.369263,419.989075 
	C366.544128,419.431610 363.000183,415.600250 361.437988,409.801086 
	C360.769989,407.321381 361.102203,404.809235 360.483246,402.417572 
	C359.848328,399.964233 359.456543,396.857971 355.110229,398.765228 
M281.617401,274.882996 
	C278.557068,272.309753 275.458954,269.801575 271.830811,268.025970 
	C269.005127,266.643036 267.381134,267.519257 266.817963,270.524231 
	C266.043884,274.654633 266.087219,278.864136 266.599548,282.963989 
	C270.676849,315.589813 288.700897,338.552521 316.628418,354.537140 
	C317.691895,355.145813 318.748627,356.233337 320.697632,355.376709 
	C319.405640,349.986694 318.261627,344.494965 316.766541,339.100555 
	C310.140747,315.193634 299.921967,293.211151 281.617401,274.882996 
M394.662476,394.072601 
	C392.593506,398.570221 392.878662,402.770203 395.022461,407.378479 
	C397.626953,412.977203 398.651123,419.103485 398.388824,425.394073 
	C398.205658,429.787476 398.353546,434.194672 398.353546,438.933014 
	C407.967834,434.309509 416.849701,429.830566 425.559235,424.979340 
	C429.354523,422.865326 431.215637,420.506226 430.946411,415.981262 
	C430.753571,412.739777 432.060669,409.437836 432.211945,406.140533 
	C432.452301,400.900238 434.633850,395.728180 433.154388,389.091797 
	C432.176239,391.905396 431.673431,393.473358 431.089630,395.010590 
	C427.978516,403.202576 422.672729,406.513672 413.958008,405.260315 
	C408.064301,404.412689 403.932007,400.324005 399.598083,396.663513 
	C398.207703,395.489166 397.525604,393.103027 394.662476,394.072601 
M459.635223,391.196625 
	C459.635223,388.634003 459.635223,386.071381 459.635223,383.295410 
	C454.325592,385.779358 452.480865,393.164154 453.281555,407.835175 
	C458.667633,403.468567 457.869934,397.230713 459.635223,391.196625 
M506.201447,331.692444 
	C508.904755,329.330414 511.608063,326.968384 514.365479,324.559021 
	C512.955078,322.828491 511.988007,320.449280 509.890656,322.179932 
	C505.144684,326.096069 501.041443,330.622498 498.542542,337.054260 
	C501.853638,335.847260 503.497498,333.638397 506.201447,331.692444 
M194.915009,485.554535 
	C197.454437,487.225739 199.796982,489.271942 203.491623,490.269257 
	C202.072510,484.330597 196.020691,482.996887 194.439758,477.518738 
	C192.464005,480.785065 191.174911,483.079987 194.915009,485.554535 
z"/>
<path fill="#000000" opacity="1.000000" stroke="none" 
	d="
M90.625435,443.665100 
	C92.654060,450.723175 93.831703,457.535004 96.364738,464.127869 
	C98.426277,469.493561 97.332596,475.817017 98.848129,481.673523 
	C104.679626,504.208374 110.194931,526.825745 115.726250,549.437256 
	C117.708115,557.538879 118.973885,565.764648 118.332428,574.152222 
	C117.815071,580.917053 115.619667,586.947510 109.497536,590.621704 
	C102.164650,595.022583 94.374031,593.639893 87.559677,587.410034 
	C79.882828,580.391663 76.076859,571.172119 72.699791,561.745117 
	C68.715706,550.623596 64.853233,539.449768 61.331139,528.175781 
	C59.909977,523.626831 59.241379,518.782288 58.749077,514.018677 
	C58.120754,507.938995 60.864937,503.452820 66.016045,501.017273 
	C70.889404,498.713043 75.613213,499.627045 80.223259,503.797058 
	C80.820862,504.337616 81.324867,504.981659 82.476143,506.235413 
	C82.011154,500.209229 79.954918,495.375916 78.884460,490.338379 
	C77.008308,481.509216 74.437675,473.022980 69.489685,465.280273 
	C65.462250,458.978119 63.934055,451.739807 64.233025,444.278503 
	C64.513458,437.279633 69.255577,431.741852 75.286850,430.774414 
	C81.816299,429.727081 86.826828,433.103851 89.590813,440.438110 
	C89.941414,441.368500 90.199097,442.333923 90.625435,443.665100 
M85.219894,514.904114 
	C84.994446,514.297974 84.769005,513.691772 84.543556,513.085632 
	C86.208305,525.006348 87.091080,537.088379 93.028877,548.042053 
	C90.505096,537.202148 87.981323,526.362305 85.219894,514.904114 
z"/>
<path fill="#000000" opacity="1.000000" stroke="none" 
	d="
M155.320557,535.926880 
	C157.000778,544.339233 152.999298,550.774231 145.343231,552.445068 
	C138.406479,553.958923 131.989227,549.596741 130.728378,541.801453 
	C128.047394,525.226135 121.584343,509.953583 115.093018,494.679749 
	C111.888084,487.138580 114.816269,479.622223 122.367729,476.723236 
	C129.039703,474.161896 136.421021,477.948700 138.855408,485.446198 
	C143.104645,498.533112 147.145569,511.687561 151.353271,524.788147 
	C152.517319,528.412476 153.962112,531.946533 155.320557,535.926880 
z"/>
</svg>